<?xml version="1.0" encoding="utf-8"?>
<!-- Generator: Adobe Illustrator 26.0.3, SVG Export Plug-In . SVG Version: 6.00 Build 0)  -->
<svg version="1.0" id="katman_1" xmlns="http://www.w3.org/2000/svg" xmlns:xlink="http://www.w3.org/1999/xlink" x="0px" y="0px"
	 viewBox="0 0 600 450" style="enable-background:new 0 0 600 450;" xml:space="preserve">
<style type="text/css">
	.st0{fill-rule:evenodd;clip-rule:evenodd;fill:#FFFFFF;}
	.st1{fill-rule:evenodd;clip-rule:evenodd;fill:#F8AD24;}
	.st2{filter:url(#Adobe_OpacityMaskFilter);}
	.st3{mask:url(#mask-2_00000060015970859914037760000011072394007051541421_);fill-rule:evenodd;clip-rule:evenodd;fill:#F8AD24;}
</style>
<g id="Page-1_00000111895299895410251100000002484031617241160848_">
	<g id="_x30_1_x5F_Homepage_x5F_1560_x2B_" transform="translate(-127.000000, -10.000000)">
		<g id="Page-1" transform="translate(127.000000, 10.000000)">
			<path id="Fill-1" class="st0" d="M444,230.3c0,80.1-64.9,145-145,145s-145-64.9-145-145s64.9-145,145-145S444,150.2,444,230.3"/>
			<path id="Fill-3" class="st1" d="M352.8,204.2c-7.6,0-12.9,5.5-12.9,13.5c0,8,5.3,13.5,12.9,13.5c7.6,0,12.9-5.5,12.9-13.5
				C365.7,209.7,360.4,204.2,352.8,204.2"/>
			<g id="Group-7">
				<defs>
					<filter id="Adobe_OpacityMaskFilter" filterUnits="userSpaceOnUse" x="143.9" y="69.2" width="312.4" height="312.4">
						<feColorMatrix  type="matrix" values="1 0 0 0 0  0 1 0 0 0  0 0 1 0 0  0 0 0 1 0"/>
					</filter>
				</defs>
				
					<mask maskUnits="userSpaceOnUse" x="143.9" y="69.2" width="312.4" height="312.4" id="mask-2_00000060015970859914037760000011072394007051541421_">
					<g class="st2">
						<polygon id="path-1_00000016780539315227995640000011382135552660919706_" class="st0" points="456.3,381.6 456.3,69.2 
							143.9,69.2 143.9,381.6 						"/>
					</g>
				</mask>
				<path id="Fill-5" class="st3" d="M300.1,69.2c-86.3,0-156.2,69.9-156.2,156.2c0,86.3,69.9,156.2,156.2,156.2
					c86.3,0,156.2-69.9,156.2-156.2C456.3,139.1,386.4,69.2,300.1,69.2L300.1,69.2z M286.3,255.5c1.6,1,3.7,1.8,6.3,1.8
					c4.3,0,6.9-2.4,6.9-8.7v-55.6h12.5v56.7c0,13.2-7.4,19.6-18.4,19.6c-7.4,0-12.7-2.8-15.5-5.7L286.3,255.5z M214.1,242.2h-38
					v-49.2h38v11.2h-25.4v7.5h18.1V223h-18.1v8h25.5V242.2z M231.7,193.1h12.1l21.3,28.8v-28.8h12.6v49.2h-12.1l-21.3-28.8v28.8
					h-12.5V193.1z M300.1,319.5c-21.9,0-42.6-8.6-58.1-24.1l8.9-8.9c13.2,13.2,30.6,20.4,49.2,20.4c18.6,0,36.1-7.2,49.2-20.4
					l8.9,8.9C342.7,310.9,322.1,319.5,300.1,319.5L300.1,319.5z M352.8,243.1c-15.2,0-26-10.8-26-25.5c0-14.7,10.8-25.5,26-25.5
					c15.2,0,26,10.8,26,25.5C378.8,232.3,368,243.1,352.8,243.1L352.8,243.1z M415.3,242.2h-12.6v-18.7l-18.6-30.5h14.5l10.5,19.1
					l10.5-19.1h14l-18.2,30.4V242.2z"/>
			</g>
		</g>
	</g>
</g>
</svg>
