<?xml version="1.0" encoding="utf-8"?>
<!-- Generator: Adobe Illustrator 25.4.1, SVG Export Plug-In . SVG Version: 6.00 Build 0)  -->
<svg version="1.0" id="Layer_1" xmlns="http://www.w3.org/2000/svg" xmlns:xlink="http://www.w3.org/1999/xlink" x="0px" y="0px"
	 viewBox="0 0 290 202" style="enable-background:new 0 0 290 202;" xml:space="preserve">
<style type="text/css">
	.st0{fill:#0C0C0C;}
	.st1{fill:#6E5AEA;}
	.st2{fill:none;}
</style>
<g id="Layer_2">
	<g id="Layer_1-2">
		<path class="st0" d="M80,118v-17H66.1v17H55.3V75.6h10.8v15.9H80V75.6h10.8V118H80z"/>
		<path class="st0" d="M109.7,118V86.2h8.9v3.4h0.1c1.7-3.4,4.3-4.5,8-4.5v9.6c-5.7,0.1-7.5,2.2-7.5,5.8V118H109.7z"/>
		<path class="st0" d="M137,105c0.5,3.6,3.6,6,7.4,6c2.3,0.1,4.5-1.1,5.8-3h9.8c-3,6.9-8.8,11-15.5,11c-9.3,0-16.8-7.5-16.8-16.8
			c0,0,0,0,0,0l0,0c0-9.2,7.3-17.1,16.7-17.1c9.5,0,16.8,7.5,16.8,17.4c0,0.8-0.1,1.7-0.2,2.5L137,105z M151.6,98.6
			c-0.8-3.3-3.9-5.6-7.3-5.4c-3.4-0.2-6.4,2.1-7.1,5.4H151.6z"/>
		<path class="st0" d="M189,118v-3.4h-0.1c-1.8,2.9-5,4.5-9.5,4.5c-9.6,0-15.9-7.4-15.9-17s6.5-16.9,15.8-16.9
			c3.5-0.1,6.9,1.3,9.4,3.8V75.6h9.5V118H189z M189.1,102c-0.1-4.4-3.7-8-8.2-7.9c-4.4,0.1-8,3.7-7.9,8.2c0.1,4.4,3.6,7.9,8,7.9
			c4.4,0.1,8.1-3.4,8.2-7.8C189.1,102.2,189.1,102.1,189.1,102L189.1,102z"/>
		<path class="st0" d="M95.3,118V86.2h9.5V118H95.3z"/>
		<circle class="st0" cx="100.1" cy="79.3" r="4.8"/>
		<path class="st1" d="M234.7,127.5h-31.8V118h31.8V127.5z"/>
	</g>
</g>
<rect x="45" y="66" class="st2" width="200" height="70"/>
</svg>
