<svg xmlns="http://www.w3.org/2000/svg" xmlns:xlink="http://www.w3.org/1999/xlink">
  <symbol id="location">
    <path d="m12.596 11.596-3.535 3.536a1.5 1.5 0 0 1-2.122 0l-3.535-3.536a6.5 6.5 0 1 1 9.192-9.193 6.5 6.5 0 0 1 0 9.193Zm-1.06-8.132v-.001a5 5 0 1 0-7.072 7.072L8 14.07l3.536-3.534a5 5 0 0 0 0-7.072ZM8 9a2 2 0 1 1-.001-3.999A2 2 0 0 1 8 9Z" />
  </symbol>

  <symbol id="github">
    <path d="M8 0C3.58 0 0 3.582 0 8c0 3.535 2.292 6.533 5.47 7.59.4.075.547-.172.547-.385 0-.19-.007-.693-.01-1.36-2.226.483-2.695-1.073-2.695-1.073-.364-.924-.89-1.17-.89-1.17-.725-.496.056-.486.056-.486.803.056 1.225.824 1.225.824.714 1.223 1.873.87 2.33.665.072-.517.278-.87.507-1.07-1.777-.2-3.644-.888-3.644-3.953 0-.873.31-1.587.823-2.147-.09-.202-.36-1.015.07-2.117 0 0 .67-.215 2.2.82.64-.178 1.32-.266 2-.27.68.004 1.36.092 2 .27 1.52-1.035 2.19-.82 2.19-.82.43 1.102.16 1.915.08 2.117.51.56.82 1.274.82 2.147 0 3.073-1.87 3.75-3.65 3.947.28.24.54.73.54 1.48 0 1.07-.01 1.93-.01 2.19 0 .21.14.46.55.38C13.71 14.53 16 11.53 16 8c0-4.418-3.582-8-8-8" />
  </symbol>

  <symbol id="linkedin">
    <path d="M13.632 13.635h-2.37V9.922c0-.886-.018-2.025-1.234-2.025-1.235 0-1.424.964-1.424 1.96v3.778h-2.37V6H8.51v1.04h.03c.318-.6 1.092-1.233 2.247-1.233 2.4 0 2.845 1.58 2.845 3.637v4.188zM3.558 4.955c-.762 0-1.376-.617-1.376-1.377 0-.758.614-1.375 1.376-1.375.76 0 1.376.617 1.376 1.375 0 .76-.617 1.377-1.376 1.377zm1.188 8.68H2.37V6h2.376v7.635zM14.816 0H1.18C.528 0 0 .516 0 1.153v13.694C0 15.484.528 16 1.18 16h13.635c.652 0 1.185-.516 1.185-1.153V1.153C16 .516 15.467 0 14.815 0z" />
  </symbol>

  <symbol id="mastodon" viewBox="0 0 24 24">
    <path d="M21.327 8.566c0-4.339-2.843-5.61-2.843-5.61-1.433-.658-3.894-.935-6.451-.956h-.063c-2.557.021-5.016.298-6.45.956 0 0-2.843 1.272-2.843 5.61 0 .993-.019 2.181.012 3.441.103 4.243.778 8.425 4.701 9.463 1.809.479 3.362.579 4.612.51 2.268-.126 3.541-.809 3.541-.809l-.075-1.646s-1.621.511-3.441.449c-1.804-.062-3.707-.194-3.999-2.409a4.523 4.523 0 0 1-.04-.621s1.77.433 4.014.536c1.372.063 2.658-.08 3.965-.236 2.506-.299 4.688-1.843 4.962-3.254.434-2.223.398-5.424.398-5.424zm-3.353 5.59h-2.081V9.057c0-1.075-.452-1.62-1.357-1.62-1 0-1.501.647-1.501 1.927v2.791h-2.069V9.364c0-1.28-.501-1.927-1.502-1.927-.905 0-1.357.546-1.357 1.62v5.099H6.026V8.903c0-1.074.273-1.927.823-2.558.566-.631 1.307-.955 2.228-.955 1.065 0 1.872.409 2.405 1.228l.518.869.519-.869c.533-.819 1.34-1.228 2.405-1.228.92 0 1.662.324 2.228.955.549.631.822 1.484.822 2.558v5.253z"/>
  </symbol>

  <symbol id="handshake">
    <path d="M15.93,6.7l-2.68-3.48c-.1-.13-.28-.16-.42-.07l-1.73,1.1h-2.26s-.06,0-.09.01l-1.75.5-1.81-.5-1.76-1.12c-.13-.09-.31-.06-.41.07L.07,6.88c-.11.13-.09.32.04.43l1.55,1.34,1.39,1.88c-.41.43-.4,1.12.02,1.54.19.19.43.29.67.32,0,.06-.01.11-.01.17,0,.3.12.57.32.78s.49.32.78.32c0,0,0,0,.01,0,0,0,0,.02,0,.02,0,.3.12.57.32.78.21.21.49.32.78.32.06,0,.12,0,.17-.01.02.25.13.49.32.68.22.22.5.32.78.32s.57-.11.78-.32l.17-.17.07.06c.21.21.49.31.77.31s.57-.11.78-.32c.22-.22.33-.51.32-.8.29,0,.58-.1.8-.32.22-.22.33-.51.32-.8.3,0,.59-.11.8-.32s.33-.51.32-.8c.29,0,.58-.1.8-.32.38-.38.42-.96.15-1.39l1.02-2.13,1.53-1.32c.13-.11.15-.3.04-.43ZM3.34,3.83l1.27.81-2.76,3.36-1.1-.95,2.59-3.21ZM3.52,10.95l.38-.38s.02-.02.04-.03c.07-.06.17-.1.26-.11,0,0,0,0,0,0,.01,0,.03,0,.04,0,.13,0,.25.06.34.15.18.19.17.49-.02.68l-.37.37c-.19.19-.49.19-.68,0-.19-.19-.19-.49,0-.68ZM4.51,12.9c-.09-.09-.14-.21-.14-.34s.05-.25.14-.34l.74-.74c.14-.14.37-.18.55-.09.19.09.29.29.27.5-.01.11-.07.21-.14.29l-.73.73c-.09.09-.21.14-.34.14s-.25-.05-.34-.14ZM5.63,14.03c-.09-.09-.14-.21-.14-.34s.05-.25.14-.34l.74-.74c.15-.15.4-.18.58-.08.17.1.26.29.23.49-.02.11-.07.21-.14.28l-.73.73c-.09.09-.21.14-.34.14s-.25-.05-.34-.14ZM6.9,15.02c-.19-.19-.19-.49,0-.68l.38-.38s.02-.02.04-.03c0,0,0,0,0,0,.06-.05.14-.08.21-.1h0s.03,0,.04,0c0,0,.01,0,.02,0,.01,0,.02,0,.03,0,.13,0,.25.06.34.15.01.01.02.02.03.04.14.19.12.47-.05.65l-.37.37c-.19.19-.49.19-.68,0ZM12.76,11.52c-.19.19-.49.19-.68,0,0,0-.01-.01-.02-.02l-2.02-2.04c-.12-.12-.32-.12-.44,0-.12.12-.12.32,0,.44l2.04,2.06h0c.19.19.19.49,0,.68-.09.09-.21.14-.34.14s-.25-.05-.34-.14l-1.36-1.38c-.12-.12-.32-.12-.44,0-.12.12-.12.32,0,.44l1.34,1.36s.01.02.02.02c.19.19.19.49,0,.68-.19.19-.49.19-.68,0l-.74-.75c-.12-.12-.32-.12-.44,0-.12.12-.12.32,0,.44l.72.73s.01.02.02.02c.19.19.19.49,0,.68-.19.19-.49.19-.68,0-.02-.02-.05-.04-.07-.06-.02-.02-.03-.03-.02-.05.01-.03.03-.05.04-.07.01-.03.02-.06.03-.09.05-.16.06-.32.04-.48-.04-.31-.21-.59-.47-.76-.14-.1-.3-.16-.47-.18.08-.36-.02-.74-.27-1.01-.21-.22-.49-.34-.79-.35-.01,0-.02,0-.03,0,0-.29-.1-.57-.3-.78-.21-.22-.49-.34-.79-.35-.09,0-.18,0-.27.03-.04-.26-.17-.5-.37-.67-.2-.17-.45-.27-.71-.27-.28,0-.55.1-.76.28l-1.21-1.63,2.9-3.53.92.25-1.21,2.13c-.15.26-.18.56-.1.84.08.29.26.52.52.67.02,0,.03.02.05.03,0,0,0,0,0,0,.04.02.09.04.13.06.21.07.44.08.66.02.29-.08.52-.26.67-.52l.78-1.38,1.4.1,3.73,3.73c.19.19.19.49,0,.68ZM12.89,10.08l-3.5-3.5s-.01-.01-.02-.02c-.05-.04-.11-.07-.18-.07l-1.72-.12c-.12,0-.24.05-.3.16l-.88,1.56c-.06.11-.17.19-.29.23-.12.03-.25.02-.37-.05-.11-.06-.19-.17-.23-.29s-.02-.25.05-.37l1.18-2.08.48-.14s0,0,0,0l1.78-.51h2.15l2.69,3.42-.85,1.79ZM14.15,7.8l-2.48-3.16,1.27-.81,2.32,3.02-1.11.95Z"/>
    <path d="M9.69,3.66c.08,0,.16-.03.22-.09l2.14-2.14c.12-.12.12-.32,0-.44s-.32-.12-.44,0l-2.14,2.14c-.12.12-.12.32,0,.44.06.06.14.09.22.09Z"/>
    <path d="M6.08,3.57c.06.06.14.09.22.09s.16-.03.22-.09c.12-.12.12-.32,0-.44L4.39.98c-.12-.12-.32-.12-.44,0s-.12.32,0,.44l2.14,2.14Z"/>
    <path d="M8,3.66c.17,0,.31-.14.31-.31v-1.77c0-.17-.14-.31-.31-.31s-.31.14-.31.31v1.77c0,.17.14.31.31.31Z"/>
    <path d="M7.71.43c.05.12.17.2.3.19.13,0,.24-.09.28-.22.04-.12,0-.27-.11-.34-.11-.08-.25-.09-.36-.01-.12.08-.17.24-.12.38Z"/>
  </symbol>

  <symbol id="stackoverflow">
    <path d="M12.658 14.577v-4.27h1.423V16H1.23v-5.693h1.42v4.27h10.006zm-8.583-1.423h7.16V11.73h-7.16v1.424zm.173-3.235l6.987 1.46.3-1.38L4.55 8.54l-.302 1.38zm.906-3.37l6.47 3.02.602-1.3-6.47-3.02-.602 1.29zm1.81-3.19l5.478 4.57.906-1.08L7.87 2.28l-.9 1.078zM10.502 0L9.338.863l4.27 5.735 1.164-.862L10.5 0z" />
  </symbol>

  <symbol id="star">
    <path d="M15.96,5.79c-.1-.32-.39-.55-.73-.58l-4.62-.42-1.83-4.27c-.13-.31-.44-.52-.78-.52s-.65.2-.78.52l-1.83,4.27-4.62.42c-.34.03-.63.26-.73.58-.11.32,0,.68.25.9l3.49,3.06-1.03,4.53c-.08.33.05.68.33.88.15.11.32.16.5.16.15,0,.3-.04.44-.12l3.98-2.38,3.98,2.38c.29.18.66.16.93-.04.28-.2.41-.55.33-.88l-1.03-4.53,3.49-3.06c.26-.22.35-.58.25-.9Z" />
  </symbol>

  <symbol id="chevron" viewBox="0 0 16 9.12">
    <path d="M8,9.12c-.29,0-.57-.11-.79-.33L.33,1.91C-.11,1.48-.11.77.33.33.77-.11,1.48-.11,1.91.33l6.09,6.09L14.09.33c.44-.44,1.15-.44,1.58,0,.44.44.44,1.15,0,1.58l-6.88,6.88c-.22.22-.51.33-.79.33Z" />
  </symbol>

  <symbol id="arrow" viewBox="0 0 16 11.64">
    <path d="M15.27,5.1H2.48l3.85-3.85c.29-.28.3-.74.02-1.03-.28-.29-.74-.3-1.03-.02,0,0-.01.01-.02.02L.21,5.31c-.28.28-.28.74,0,1.03l5.09,5.09c.29.28.75.27,1.03-.02.27-.28.27-.73,0-1.01l-3.85-3.85h12.79c.4,0,.73-.33.73-.73s-.33-.73-.73-.73h0Z" />
  </symbol>

  <symbol id="download">
    <path d="M16,15c0,.55-.45,1-1,1H1c-.55,0-1-.45-1-1s.45-1,1-1h14c.55,0,1,.45,1,1ZM7.29,11.83c.2.2.45.29.71.29s.51-.1.71-.29l3.54-3.54c.39-.39.39-1.02,0-1.41s-1.02-.39-1.41,0l-1.84,1.84V1c0-.55-.45-1-1-1s-1,.45-1,1v7.71l-1.84-1.84c-.39-.39-1.02-.39-1.41,0s-.39,1.02,0,1.41l3.54,3.54Z" />
  </symbol>

  <symbol id="play">
    <path d="M8,0C3.58,0,0,3.58,0,8s3.58,8,8,8,8-3.58,8-8S12.42,0,8,0ZM8,14.67c-3.68,0-6.67-2.98-6.67-6.67S4.32,1.33,8,1.33s6.67,2.98,6.67,6.67-2.98,6.67-6.67,6.67Z" />
    <path d="M11.73,7.47L6.4,3.47c-.44-.33-1.07-.02-1.07.53v8c0,.55.63.86,1.07.53l5.33-4c.36-.27.36-.8,0-1.07ZM6.67,10.67v-5.33l3.56,2.67-3.56,2.67Z" />
  </symbol>

  <symbol id="email" viewBox="0 0 16 11.25">
    <path d="M14.59,0H1.41C.63,0,0,.63,0,1.41v8.44c0,.78.63,1.41,1.41,1.41h13.19c.77,0,1.41-.63,1.41-1.41V1.41c0-.77-.63-1.41-1.41-1.41ZM14.4.94c-.29.29-5.23,5.2-5.4,5.37-.27.27-.62.41-.99.41s-.73-.15-1-.41c-.11-.11-5-4.98-5.4-5.37h12.79ZM.94,9.65V1.6l4.05,4.03L.94,9.65ZM1.6,10.31l4.05-4.02.69.69c.44.44,1.03.69,1.66.69s1.21-.24,1.66-.69l.69-.69,4.05,4.02H1.6ZM15.06,9.65l-4.05-4.03L15.06,1.6v8.06Z" />
  </symbol>

  <symbol id="phone">
    <path d="M3.24,10.68c1.58,1.89,3.49,3.38,5.67,4.44.83.39,1.94.86,3.17.94.08,0,.15,0,.23,0,.83,0,1.49-.29,2.04-.88,0,0,0,0,.01-.02.19-.23.41-.44.64-.67.16-.15.32-.31.47-.47.71-.74.71-1.68,0-2.39l-2-2c-.34-.35-.75-.54-1.17-.54s-.84.19-1.18.54l-1.19,1.19c-.11-.06-.22-.12-.33-.17-.13-.07-.26-.13-.37-.2-1.08-.69-2.07-1.59-3.01-2.74-.48-.6-.8-1.11-1.02-1.62.31-.28.61-.58.89-.87.1-.1.2-.21.31-.31.36-.36.55-.78.55-1.2s-.19-.84-.55-1.2l-.99-.99c-.12-.12-.23-.23-.34-.35-.22-.23-.45-.46-.68-.67-.34-.34-.75-.51-1.17-.51s-.83.18-1.18.52L.78,1.76C.32,2.21.07,2.76.01,3.4c-.06.8.08,1.64.46,2.66.58,1.58,1.46,3.05,2.77,4.62ZM.83,3.47c.04-.44.21-.81.53-1.13l1.24-1.24c.19-.19.41-.28.61-.28s.41.1.6.29c.22.21.43.42.66.65.11.12.23.23.35.35l.99.99c.21.21.31.42.31.62s-.11.42-.31.62c-.1.1-.21.21-.31.31-.31.31-.6.61-.92.89l-.02.02c-.28.28-.23.54-.17.74,0,0,0,.02,0,.03.26.62.61,1.2,1.17,1.9,1,1.23,2.05,2.19,3.21,2.92.14.09.3.17.44.24.13.07.26.13.37.2.01,0,.02.01.04.02.11.06.22.08.32.08.27,0,.44-.17.5-.23l1.24-1.24c.19-.19.4-.3.61-.3.25,0,.46.16.59.3l2.01,2c.4.4.4.83,0,1.25-.14.15-.29.29-.44.44-.23.23-.48.46-.7.72-.38.41-.84.61-1.43.61-.06,0-.12,0-.17,0-1.09-.07-2.11-.5-2.87-.86-2.07-1-3.89-2.42-5.39-4.23-1.24-1.49-2.08-2.89-2.63-4.38-.34-.92-.47-1.65-.42-2.32Z" />
  </symbol>

  <symbol id="mergerequest" viewBox="0 0 16 17.68">
    <path d="M9.86,1.44l-1.09,1.09h.49c2.79,0,5.05,2.26,5.05,5.05v5.2c.98.35,1.68,1.28,1.68,2.38,0,1.4-1.13,2.53-2.53,2.53s-2.53-1.13-2.53-2.53c0-1.1.7-2.04,1.68-2.38v-5.2c0-1.86-1.51-3.37-3.37-3.37h-.49l1.09,1.09c.33.33.33.86,0,1.19-.33.33-.86.33-1.19,0l-2.53-2.53c-.33-.33-.33-.86,0-1.19L8.67.25c.33-.33.86-.33,1.19,0,.33.33.33.86,0,1.19ZM12.63,15.16c0-.47.38-.84.84-.84s.84.38.84.84-.38.84-.84.84-.84-.38-.84-.84ZM2.53,2.53c-.47,0-.84.38-.84.84s.38.84.84.84.84-.38.84-.84-.38-.84-.84-.84ZM3.37,5.75c.98-.35,1.68-1.28,1.68-2.38,0-1.4-1.13-2.53-2.53-2.53S0,1.97,0,3.37c0,1.1.7,2.04,1.68,2.38v7.02c-.98.35-1.68,1.28-1.68,2.38,0,1.4,1.13,2.53,2.53,2.53s2.53-1.13,2.53-2.53c0-1.1-.7-2.04-1.68-2.38v-7.02ZM2.53,14.32c-.47,0-.84.38-.84.84s.38.84.84.84.84-.38.84-.84-.38-.84-.84-.84Z" style="fill-rule: evenodd;"/>
  </symbol>

  <symbol id="webdevelopment" viewBox="0 0 16 14.78">
    <path d="M10.78,12.82c-.08-.05-.16-.12-.21-.2-.03-.04-.05-.08-.07-.12H1.08V3.21h12.79v6.06c.27.02.5.2.6.45.09-.05.18-.08.28-.08.07,0,.13,0,.2.01V.9c0-.5-.4-.9-.9-.9H.9c-.5,0-.9.4-.9.9v11.78c0,.5.4.9.9.9h9.8c-.08-.15-.09-.33-.05-.5.03-.1.07-.18.13-.26ZM12.88,1.51c0-.18.15-.33.33-.33h.33c.18,0,.33.15.33.33v.38c0,.18-.15.33-.33.33h-.33c-.18,0-.33-.15-.33-.33v-.38ZM11.34,1.51c0-.18.15-.33.33-.33h.33c.18,0,.33.15.33.33v.38c0,.18-.15.33-.33.33h-.33c-.18,0-.33-.15-.33-.33v-.38ZM9.8,1.51c0-.18.15-.33.33-.33h.33c.18,0,.33.15.33.33v.38c0,.18-.15.33-.33.33h-.33c-.18,0-.33-.15-.33-.33v-.38Z"/><path d="M16,12.18l-.1-.57c-.01-.08-.09-.13-.16-.11l-.5.09c-.06-.14-.14-.27-.23-.4l.33-.39s.04-.07.03-.1c0-.04-.02-.07-.05-.1l-.44-.37s-.07-.04-.1-.03c-.04,0-.07.02-.09.05l-.33.39c-.13-.07-.28-.12-.43-.16v-.51c0-.08-.06-.14-.14-.14h-.57c-.08,0-.14.06-.14.14v.51c-.15.03-.29.09-.43.16l-.33-.39c-.05-.06-.14-.07-.2-.02l-.44.37s-.05.06-.05.1c0,.04,0,.07.03.1l.33.39c-.09.12-.17.25-.23.4l-.5-.09c-.08-.01-.15.04-.16.11l-.1.57s0,.07.02.1c.02.03.05.05.09.06l.5.09c0,.16.04.31.08.45l-.44.26s-.06.05-.07.08c0,.04,0,.07.01.11l.29.5s.05.06.08.07c.01,0,.02,0,.04,0,.02,0,.05,0,.07-.02l.44-.26c.1.11.22.21.35.29l-.17.48s-.01.07,0,.11.04.06.08.07l.54.2s.03,0,.05,0c.02,0,.04,0,.06-.01.03-.02.06-.04.07-.08l.17-.48c.07,0,.15.01.23.01s.15,0,.23-.01l.17.48s.04.06.07.08c.02,0,.04.01.06.01.02,0,.03,0,.05,0l.54-.2s.06-.04.08-.07c.02-.03.02-.07,0-.11l-.17-.48c.13-.08.25-.18.35-.29l.44.26s.05.02.07.02c.01,0,.02,0,.04,0,.04,0,.07-.03.08-.07l.29-.5s.02-.07.01-.11c0-.04-.03-.07-.07-.08l-.44-.26c.04-.14.07-.29.08-.45l.5-.09s.07-.03.09-.06c.02-.03.03-.07.02-.1ZM13.49,13.08c-.43,0-.77-.34-.77-.77s.34-.77.77-.77.77.34.77.77-.34.77-.77.77Z"/><path d="M6.28,8.36c0-.18-.11-.35-.27-.42l-1.5-.7,1.5-.7c.16-.08.27-.24.27-.42h0c0-.17-.08-.32-.22-.41-.07-.05-.16-.07-.25-.07-.07,0-.14.01-.2.04l-2.4,1.12c-.16.08-.27.24-.27.42v.03c0,.18.11.35.27.42l2.4,1.12c.06.03.13.04.2.04.09,0,.18-.03.25-.07.14-.09.22-.23.22-.39h0Z"/><path d="M8.65,4.5c-.09-.12-.23-.19-.38-.19h-.01c-.2,0-.38.13-.44.32l-1.58,4.91c-.05.14-.02.3.07.42.09.12.23.19.38.19h.01c.2,0,.38-.13.44-.32l1.58-4.91c.05-.14.02-.3-.07-.42Z"/><path d="M11.74,6.8l-2.4-1.12c-.06-.03-.13-.04-.2-.04-.09,0-.18.03-.25.07-.14.09-.22.23-.22.39h0c0,.19.11.36.27.44l1.5.7-1.5.7c-.16.08-.27.24-.27.42h0c0,.17.08.32.22.41.08.05.16.07.25.07.07,0,.13-.01.2-.04l2.4-1.12c.16-.08.27-.24.27-.42v-.03c0-.18-.11-.35-.27-.42Z"/>
  </symbol>

  <symbol id="opensource">
    <path d="M8,1.33c3.68,0,6.67,2.98,6.67,6.67,0,2.93-1.89,5.42-4.53,6.32l-.15.05-1.94-5.03c.71-.03,1.28-.63,1.28-1.33s-.6-1.33-1.33-1.33-1.33.6-1.33,1.33.57,1.3,1.28,1.33l-1.94,5.03-.15-.05c-2.63-.89-4.53-3.38-4.53-6.32,0-3.68,2.98-6.67,6.67-6.67ZM8,2.67c-2.95,0-5.33,2.39-5.33,5.33,0,1.95,1.04,3.65,2.6,4.58l.99-2.57c-.56-.49-.92-1.21-.92-2.02,0-1.47,1.19-2.67,2.67-2.67s2.67,1.19,2.67,2.67c0,.8-.36,1.53-.92,2.02.38.98.71,1.84.99,2.57,1.56-.93,2.6-2.64,2.6-4.58,0-2.95-2.39-5.33-5.33-5.33Z"/>
  </symbol>

  <symbol id="optimization">
    <path d="M8.97,15.43h-.02c-.14.02-.24.15-.22.28.02.13.12.22.25.22.01,0,.02,0,.03,0h.02c.14-.02.24-.15.22-.29-.02-.14-.14-.24-.28-.22Z"/>
    <path d="M8.1,15.49s0,0,0,0c-.03,0-.06,0-.09,0-4.13,0-7.49-3.36-7.49-7.49S3.87.51,8,.51s7.49,3.36,7.49,7.49c0,1.14-.25,2.24-.74,3.26-.06.13,0,.28.12.34.13.06.28,0,.34-.12.53-1.09.79-2.26.79-3.48,0-2.14-.83-4.15-2.34-5.66-1.51-1.51-3.52-2.34-5.66-2.34S3.85.83,2.34,2.34C.83,3.85,0,5.86,0,8s.83,4.15,2.34,5.66c1.51,1.51,3.52,2.34,5.66,2.34.03,0,.07,0,.1,0,.14,0,.25-.12.25-.26,0-.14-.11-.25-.25-.25Z"/>
    <path d="M13.44,8.71h-.41c-.12,0-.23.09-.25.21-.04.23-.11.46-.18.69-.05.13.02.28.16.32.13.05.28-.02.32-.16.06-.18.12-.37.16-.55h.21c.67,0,1.21-.54,1.21-1.21s-.54-1.21-1.21-1.21h-.21c-.13-.58-.36-1.13-.68-1.63l.15-.15c.47-.47.47-1.24,0-1.71-.47-.47-1.24-.47-1.71,0l-.15.15c-.5-.32-1.05-.54-1.63-.68v-.21c0-.67-.54-1.21-1.21-1.21s-1.21.54-1.21,1.21v.21c-.58.13-1.13.36-1.63.68l-.15-.15c-.47-.47-1.24-.47-1.71,0-.23.23-.36.53-.36.86s.13.63.36.86l.15.15c-.32.5-.54,1.05-.68,1.63h-.21c-.67,0-1.21.54-1.21,1.21s.54,1.21,1.21,1.21h.21c.13.58.36,1.13.68,1.63l-.15.15c-.23.23-.36.53-.36.86s.13.63.36.86c.47.47,1.24.47,1.71,0l.15-.15c.5.32,1.05.54,1.63.68v.21c0,.67.54,1.21,1.21,1.21s1.21-.54,1.21-1.21v-.21c.19-.04.37-.1.55-.16.13-.05.2-.19.16-.32-.05-.13-.19-.2-.32-.16-.22.08-.46.14-.69.18-.12.02-.21.13-.21.25v.41c0,.39-.32.71-.71.71s-.71-.32-.71-.71v-.41c0-.12-.09-.23-.21-.25-.66-.12-1.27-.38-1.82-.76-.1-.07-.24-.06-.32.03l-.29.29c-.28.28-.72.28-1,0-.13-.13-.21-.31-.21-.5s.07-.37.21-.5l.29-.29c.09-.09.1-.22.03-.32-.38-.55-.63-1.17-.76-1.82-.02-.12-.13-.21-.25-.21h-.41c-.39,0-.71-.32-.71-.71s.32-.71.71-.71h.41c.12,0,.23-.09.25-.21.12-.66.38-1.27.76-1.82.07-.1.06-.24-.03-.32l-.29-.29c-.13-.13-.21-.31-.21-.5s.07-.37.21-.5c.28-.28.72-.28,1,0l.29.29c.09.09.22.1.32.03.55-.38,1.17-.63,1.82-.76.12-.02.21-.13.21-.25v-.41c0-.39.32-.71.71-.71s.71.32.71.71v.41c0,.12.09.23.21.25.66.12,1.27.38,1.82.76.1.07.24.06.32-.03l.29-.29c.28-.28.72-.28,1,0,.28.28.28.72,0,1l-.29.29c-.09.09-.1.22-.03.32.38.55.63,1.17.76,1.82.02.12.13.21.25.21h.41c.39,0,.71.32.71.71,0,.39-.32.71-.71.71Z"/>
    <path d="M9.97,15.23h-.03c-.13.04-.21.18-.18.32.03.11.13.19.24.19.02,0,.04,0,.07,0h.03c.13-.04.21-.18.18-.32-.04-.13-.18-.21-.31-.18Z"/>
    <path d="M12.82,10.55s0,0,0,0c-.17-.17-.41-.27-.66-.27-.16,0-.32.04-.45.12l-.46-.46c.87-1.45.68-3.37-.57-4.62-1.48-1.48-3.88-1.48-5.36,0-.72.72-1.11,1.67-1.11,2.68s.39,1.96,1.11,2.68c.72.72,1.67,1.11,2.68,1.11.7,0,1.36-.19,1.94-.54l.46.46c-.08.14-.12.29-.12.45,0,.25.1.48.27.65l2.91,2.92c.18.18.42.27.65.27s.47-.09.65-.27l.95-.95c.36-.36.36-.95,0-1.31l-2.91-2.92ZM9.85,10.7s-.02.01-.03.02c-.54.36-1.16.55-1.82.55-.88,0-1.7-.34-2.32-.96-.62-.62-.96-1.45-.96-2.32s.34-1.7.96-2.32c.64-.64,1.48-.96,2.32-.96s1.68.32,2.32.96c1.13,1.13,1.26,2.88.4,4.16,0,0,0,0,0,0-.12.17-.25.33-.4.48-.15.15-.3.28-.47.39ZM10.36,10.95c.11-.09.21-.18.31-.28.1-.1.19-.21.28-.31l.37.37-.6.6-.37-.37ZM15.37,14.42l-.95.95c-.16.16-.43.16-.6,0l-2.91-2.92c-.08-.08-.12-.19-.12-.3s.04-.22.12-.3l.95-.95c.08-.08.19-.12.3-.12s.22.04.3.12l2.91,2.92c.16.16.16.43,0,.6Z"/>
    <path d="M6.15,6.14c-1.02,1.02-1.02,2.67,0,3.69.51.51,1.18.76,1.85.76s1.34-.25,1.85-.76c1.02-1.02,1.02-2.67,0-3.69-1.02-1.02-2.67-1.02-3.69,0ZM9.49,9.48c-.41.41-.95.62-1.49.62-.54,0-1.08-.21-1.49-.62-.82-.82-.82-2.16,0-2.98s2.16-.82,2.98,0c.82.82.82,2.16,0,2.98Z"/>
    <path d="M11.26,14.75h-.02c-.13.07-.18.22-.12.35.04.09.13.14.23.14.04,0,.07,0,.11-.02h.03c.13-.07.18-.22.12-.35-.06-.13-.21-.18-.34-.12Z"/>
  </symbol>

  <!-- LOGOS -->
  <symbol id="githublogo" viewBox="0 0 12.6 16">
    <path d="M6.31,0C2.82,0,0,2.84,0,6.35c0,2.81,1.81,5.19,4.31,6.03.31.06.43-.14.43-.3,0-.15-.01-.65-.01-1.18-1.75.38-2.12-.76-2.12-.76-.28-.74-.7-.93-.7-.93-.57-.39.04-.39.04-.39.64.04.97.65.97.65.56.97,1.47.69,1.84.53.05-.41.22-.69.4-.85-1.4-.15-2.87-.69-2.87-3.14,0-.69.25-1.26.65-1.7-.06-.16-.28-.81.06-1.68,0,0,.53-.17,1.73.65.51-.14,1.04-.21,1.58-.21.53,0,1.08.07,1.58.21,1.2-.82,1.73-.65,1.73-.65.34.87.13,1.53.06,1.68.41.44.65,1.01.65,1.7,0,2.44-1.47,2.98-2.88,3.14.23.2.43.58.43,1.18,0,.85-.01,1.54-.01,1.75,0,.17.11.37.43.31,2.51-.84,4.31-3.22,4.31-6.03.01-3.51-2.82-6.35-6.3-6.35Z" style="fill-rule:evenodd;"/>
    <path d="M3.7,14.69h-.71s-.03.01-.03.03v.35s.01.03.03.03h.28v.43s-.06.02-.23.02c-.2,0-.49-.07-.49-.7s.3-.71.57-.71c.24,0,.34.04.41.06.02,0,.04-.01.04-.03l.08-.34s0-.02-.01-.03c-.03-.02-.19-.11-.6-.11-.47,0-.96.2-.96,1.17s.56,1.12,1.03,1.12c.39,0,.63-.17.63-.17,0,0,.01-.02.01-.03v-1.08s-.01-.03-.03-.03Z"/>
    <path d="M7.37,13.83s-.01-.03-.03-.03h-.4s-.03.01-.03.03c0,0,0,.77,0,.77h-.62v-.77s-.01-.03-.03-.03h-.4s-.03.01-.03.03v2.1s.01.03.03.03h.4s.03-.02.03-.03v-.9h.62s0,.9,0,.9c0,.02.01.03.03.03h.4s.03-.02.03-.03v-2.1Z"/>
    <path d="M4.46,14.1c0-.14-.12-.26-.26-.26s-.26.12-.26.26.12.26.26.26.26-.12.26-.26Z"/>
    <path d="M4.43,15.48v-.97s-.01-.03-.03-.03h-.4s-.03.02-.03.04v1.39s.03.05.06.05h.36s.05-.02.05-.05v-.42Z"/>
    <path d="M8.89,14.48h-.4s-.03.02-.03.03v1.03s-.1.07-.24.07-.18-.07-.18-.21v-.9s-.01-.03-.03-.03h-.4s-.03.02-.03.03v.96c0,.42.23.52.55.52.26,0,.47-.14.47-.14,0,0,.01.08.01.09,0,0,.02.02.03.02h.26s.03-.02.03-.03v-1.41s-.01-.03-.03-.03Z"/>
    <path d="M9.98,14.44c-.23,0-.38.1-.38.1v-.71s-.01-.03-.03-.03h-.4s-.03.01-.03.03v2.1s.01.03.03.03h.28s.02,0,.03-.02c0-.01.02-.1.02-.1,0,0,.16.16.48.16.37,0,.57-.19.57-.83s-.33-.73-.56-.73ZM9.82,15.62c-.14,0-.23-.07-.23-.07v-.66s.09-.06.21-.07c.14-.01.28.03.28.37,0,.36-.06.43-.26.43Z"/>
    <path d="M5.58,14.48h-.3s0-.4,0-.4c0-.02,0-.02-.03-.02h-.41s-.02,0-.02.02v.41s-.21.05-.22.05c-.01,0-.02.02-.02.03v.26s.01.03.03.03h.21v.62c0,.46.32.51.54.51.1,0,.22-.03.24-.04.01,0,.02-.02.02-.03v-.28s-.02-.03-.03-.03-.06,0-.11,0c-.15,0-.2-.07-.2-.16s0-.59,0-.59h.3s.03-.01.03-.03v-.32s-.01-.03-.03-.03Z"/>
  </symbol>

  <symbol id="patreonlogo" viewBox="0 0 12.38 16.15">
    <defs>
      <clipPath id="b"><rect width="12.38" height="12.38" style="fill:none;"/></clipPath>
    </defs>
    <g style="clip-path:url(#b);">
      <path d="M11.84,3.72c0-1.58-1.23-2.88-2.68-3.34C7.37-.21,5.01-.12,3.29.69,1.22,1.67.56,3.81.54,5.95c-.02,1.76.16,6.39,2.77,6.43,1.94.02,2.23-2.48,3.13-3.68.64-.86,1.46-1.1,2.48-1.35,1.74-.43,2.93-1.81,2.93-3.63"/>
    </g>
    <path d="M.58,14.62c0-.06.05-.11.12-.11h.36c.32,0,.54.18.54.44s-.22.45-.54.45h-.05c-.12,0-.19.06-.19.17v.29c0,.08-.05.14-.12.14s-.12-.05-.12-.14v-1.24ZM.82,15c0,.13.07.19.19.19h.03c.18,0,.31-.07.31-.23s-.13-.23-.31-.23h-.03c-.13,0-.19.06-.19.19v.08h0ZM1.6,15.89c0,.07.05.11.12.11.05,0,.09-.03.12-.1l.04-.12c.04-.09.1-.14.17-.14h.39c.07,0,.13.04.17.14l.04.12c.03.06.07.1.12.1.07,0,.12-.05.12-.11,0-.02,0-.04-.01-.06l-.47-1.22c-.03-.07-.1-.11-.16-.11s-.13.04-.16.11l-.47,1.22s-.01.05-.01.06M2.06,15.33s0-.04.02-.07l.09-.25s.05-.07.08-.07.06.02.08.07l.09.25s.02.05.02.07c0,.06-.04.11-.13.11h-.11c-.09,0-.13-.04-.13-.11M2.81,14.63c0-.07.05-.11.12-.11h.95c.08,0,.12.05.12.11s-.05.11-.12.11h-.16c-.13,0-.19.06-.19.21v.91c0,.08-.05.14-.12.14s-.12-.05-.12-.14v-.91c0-.15-.07-.21-.19-.21h-.16c-.08,0-.13-.05-.13-.11M4.24,15.86c0,.08.05.14.12.14s.12-.05.12-.14v-.33c0-.09.05-.13.12-.13h.02s.09.03.11.07l.32.46s.07.07.11.07c.06,0,.11-.05.11-.11,0-.03,0-.05-.03-.08l-.21-.29s-.04-.06-.04-.09c0-.05.05-.09.1-.13.1-.07.2-.17.2-.35,0-.26-.2-.43-.53-.43h-.42c-.07,0-.12.04-.12.11v1.24h0ZM4.48,14.98v-.06c0-.14.07-.19.18-.19h.1c.18,0,.29.07.29.22s-.12.22-.3.22h-.1c-.11,0-.18-.06-.18-.19M5.61,15.86v-1.24c0-.06.05-.11.12-.11h.78c.07,0,.12.04.12.11s-.05.11-.12.11h-.5c-.1,0-.17.06-.17.17v.05c0,.11.07.17.17.17h.38c.07,0,.12.04.12.11s-.05.11-.12.11h-.37c-.1,0-.18.06-.18.18v.06c0,.12.08.18.18.18h.48c.07,0,.12.04.12.11s-.05.11-.12.11h-.78c-.08,0-.12-.04-.12-.11ZM6.78,15.24c0-.45.34-.76.73-.76s.73.31.73.76-.34.76-.73.76-.73-.31-.73-.76M7.05,15.24c0,.32.19.52.46.52s.46-.2.46-.52-.19-.52-.46-.52c-.27,0-.46.2-.46.52M8.53,15.86c0,.08.05.14.12.14s.12-.05.12-.14v-.63c0-.08.05-.11.09-.11.04,0,.07.02.09.06l.4.67c.05.09.1.16.21.16s.17-.07.17-.18v-1.2c0-.08-.05-.14-.12-.14s-.12.05-.12.14v.63c0,.08-.05.11-.09.11-.04,0-.07-.02-.09-.06l-.4-.67c-.05-.09-.1-.16-.21-.16s-.17.07-.17.18v1.2Z"/>
  </symbol>

  <symbol id="ruby" viewBox="0 0 16.01 15.97">
    <defs>
      <linearGradient id="linear-gradient" x1="-1892.26" y1="5.2" x2="-1892.28" y2="5.17" gradientTransform="translate(384012.22 -1034.64) scale(202.93 202.78)" gradientUnits="userSpaceOnUse">
        <stop offset="0" stop-color="#fb7655"/>
        <stop offset="0" stop-color="#fb7655"/>
        <stop offset=".41" stop-color="#e42b1e"/>
        <stop offset=".99" stop-color="#900"/>
        <stop offset="1" stop-color="#900"/>
      </linearGradient>
      <linearGradient id="linear-gradient-2" x1="-1872.63" y1="8.57" x2="-1872.7" y2="8.55" gradientTransform="translate(112952.25 -946.95) scale(60.31 111.78)" gradientUnits="userSpaceOnUse">
        <stop offset="0" stop-color="#871101"/>
        <stop offset="0" stop-color="#871101"/>
        <stop offset=".99" stop-color="#911209"/>
        <stop offset="1" stop-color="#911209"/>
      </linearGradient>
      <linearGradient id="linear-gradient-3" x1="-1891.56" y1="38.68" x2="-1891.58" y2="38.54" gradientTransform="translate(356228.06 -834.74) scale(188.32 21.99)" gradientUnits="userSpaceOnUse">
        <stop offset="0" stop-color="#871101"/>
        <stop offset="0" stop-color="#871101"/>
        <stop offset=".99" stop-color="#911209"/>
        <stop offset="1" stop-color="#911209"/>
      </linearGradient>
      <linearGradient id="linear-gradient-4" x1="-1872.52" y1="9.56" x2="-1872.51" y2="9.6" gradientTransform="translate(122129.03 -916.84) scale(65.22 97.1)" gradientUnits="userSpaceOnUse">
        <stop offset="0" stop-color="#fff"/>
        <stop offset="0" stop-color="#fff"/>
        <stop offset=".23" stop-color="#e57252"/>
        <stop offset=".46" stop-color="#de3b20"/>
        <stop offset=".99" stop-color="#a60003"/>
        <stop offset="1" stop-color="#a60003"/>
      </linearGradient>
      <linearGradient id="linear-gradient-5" x1="-1884.01" y1="9.36" x2="-1884.01" y2="9.4" gradientTransform="translate(198432.45 -996.13) scale(105.32 106.83)" gradientUnits="userSpaceOnUse">
        <stop offset="0" stop-color="#fff"/>
        <stop offset="0" stop-color="#fff"/>
        <stop offset=".23" stop-color="#e4714e"/>
        <stop offset=".56" stop-color="#be1a0d"/>
        <stop offset=".99" stop-color="#a80d00"/>
        <stop offset="1" stop-color="#a80d00"/>
      </linearGradient>
      <linearGradient id="linear-gradient-6" x1="-1882.79" y1="15.8" x2="-1882.79" y2="15.85" gradientTransform="translate(177597 -1048.34) scale(94.32 66.42)" gradientUnits="userSpaceOnUse">
        <stop offset="0" stop-color="#fff"/>
        <stop offset="0" stop-color="#fff"/>
        <stop offset=".18" stop-color="#e46342"/>
        <stop offset=".4" stop-color="#c82410"/>
        <stop offset=".99" stop-color="#a80d00"/>
        <stop offset="1" stop-color="#a80d00"/>
      </linearGradient>
      <linearGradient id="linear-gradient-7" x1="-1876.43" y1="43.86" x2="-1876.39" y2="43.79" gradientTransform="translate(132803.02 -1063.93) scale(70.77 24.3)" gradientUnits="userSpaceOnUse">
        <stop offset="0" stop-color="#fff"/>
        <stop offset="0" stop-color="#fff"/>
        <stop offset=".54" stop-color="#c81f11"/>
        <stop offset=".99" stop-color="#bf0905"/>
        <stop offset="1" stop-color="#bf0905"/>
      </linearGradient>
      <linearGradient id="linear-gradient-8" x1="-1796.71" y1="13" x2="-1796.69" y2="13.03" gradientTransform="translate(32664 -937.36) scale(18.18 72.64)" gradientUnits="userSpaceOnUse">
        <stop offset="0" stop-color="#fff"/>
        <stop offset="0" stop-color="#fff"/>
        <stop offset=".31" stop-color="#de4024"/>
        <stop offset=".99" stop-color="#bf190b"/>
        <stop offset="1" stop-color="#bf190b"/>
      </linearGradient>
      <linearGradient id="linear-gradient-9" x1="-1889.48" y1="6.88" x2="-1889.4" y2="6.8" gradientTransform="translate(298839.92 -1075.89) scale(158.16 157.94)" gradientUnits="userSpaceOnUse">
        <stop offset="0" stop-color="#bd0012"/>
        <stop offset="0" stop-color="#bd0012"/>
        <stop offset=".07" stop-color="#fff"/>
        <stop offset=".17" stop-color="#fff"/>
        <stop offset=".27" stop-color="#c82f1c"/>
        <stop offset=".33" stop-color="#820c01"/>
        <stop offset=".46" stop-color="#a31601"/>
        <stop offset=".72" stop-color="#b31301"/>
        <stop offset=".99" stop-color="#e82609"/>
        <stop offset="1" stop-color="#e82609"/>
      </linearGradient>
      <linearGradient id="linear-gradient-10" x1="-1886.82" y1="9.57" x2="-1886.85" y2="9.56" gradientTransform="translate(239769.66 -917.92) scale(127.07 97.41)" gradientUnits="userSpaceOnUse">
        <stop offset="0" stop-color="#8c0c01"/>
        <stop offset="0" stop-color="#8c0c01"/>
        <stop offset=".54" stop-color="#990c00"/>
        <stop offset=".99" stop-color="#a80d0e"/>
        <stop offset="1" stop-color="#a80d0e"/>
      </linearGradient>
      <linearGradient id="linear-gradient-11" x1="-1882.7" y1="9.48" x2="-1882.73" y2="9.45" gradientTransform="translate(177008.26 -990.55) scale(94.01 105.6)" gradientUnits="userSpaceOnUse">
        <stop offset="0" stop-color="#7e110b"/>
        <stop offset="0" stop-color="#7e110b"/>
        <stop offset=".99" stop-color="#9e0c00"/>
        <stop offset="1" stop-color="#9e0c00"/>
      </linearGradient>
      <linearGradient id="linear-gradient-12" x1="-1879.58" y1="13.14" x2="-1879.6" y2="13.12" gradientTransform="translate(149819.38 -1070.03) scale(79.7 81.79)" gradientUnits="userSpaceOnUse">
        <stop offset="0" stop-color="#79130d"/>
        <stop offset="0" stop-color="#79130d"/>
        <stop offset=".99" stop-color="#9e120b"/>
        <stop offset="1" stop-color="#9e120b"/>
      </linearGradient>
      <radialGradient id="radial-gradient" cx="-1882.56" cy="20.38" fx="-1882.56" fy="20.38" r=".04" gradientTransform="translate(175299.08 -987.91) scale(93.11 48.66)" gradientUnits="userSpaceOnUse">
        <stop offset="0" stop-color="#a80d00"/>
        <stop offset="0" stop-color="#a80d00"/>
        <stop offset=".99" stop-color="#7e0e08"/>
        <stop offset="1" stop-color="#7e0e08"/>
      </radialGradient>
      <radialGradient id="radial-gradient-2" cx="-1882.7" cy="12.21" fx="-1882.7" fy="12.21" r=".06" gradientTransform="translate(183441.19 -915.68) scale(97.43 75.85)" gradientUnits="userSpaceOnUse">
        <stop offset="0" stop-color="#a30c00"/>
        <stop offset="0" stop-color="#a30c00"/>
        <stop offset=".99" stop-color="#800e08"/>
        <stop offset="1" stop-color="#800e08"/>
      </radialGradient>
      <linearGradient id="linear-gradient-13" x1="-1854.23" y1="11.26" x2="-1854.26" y2="11.2" gradientTransform="translate(74430.44 -898.76) scale(40.14 81.14)" gradientUnits="userSpaceOnUse">
        <stop offset="0" stop-color="#8b2114"/>
        <stop offset="0" stop-color="#8b2114"/>
        <stop offset=".43" stop-color="#9e100a"/>
        <stop offset=".99" stop-color="#b3100c"/>
        <stop offset="1" stop-color="#b3100c"/>
      </linearGradient>
      <linearGradient id="linear-gradient-14" x1="-1879.13" y1="32.63" x2="-1879.09" y2="32.67" gradientTransform="translate(146774.44 -1062.84) scale(78.1 32.62)" gradientUnits="userSpaceOnUse">
        <stop offset="0" stop-color="#b31000"/>
        <stop offset="0" stop-color="#b31000"/>
        <stop offset=".44" stop-color="#910f08"/>
        <stop offset=".99" stop-color="#791c12"/>
        <stop offset="1" stop-color="#791c12"/>
      </linearGradient>
    </defs>
    <g>
      <path d="M12.41,10.54L3.27,15.97l11.83-.8.91-11.93-3.6,7.31h0Z" style="fill: url(#linear-gradient);"/>
      <path d="M15.12,15.15l-1.02-7.02-2.77,3.66,3.79,3.36Z" style="fill: url(#linear-gradient-2);"/>
      <path d="M15.13,15.15l-7.45-.58-4.37,1.38,11.82-.8Z" style="fill: url(#linear-gradient-3);"/>
      <path d="M3.32,15.95l1.86-6.1-4.09.88s2.23,5.22,2.23,5.22Z" style="fill: url(#linear-gradient-4);"/>
      <path d="M11.33,11.81l-1.71-6.71-4.9,4.59,6.61,2.11h0Z" style="fill: url(#linear-gradient-5);"/>
      <path d="M15.62,5.2l-4.63-3.78-1.29,4.17,5.92-.39Z" style="fill: url(#linear-gradient-6);"/>
      <path d="M13.46.07l-2.72,1.51L9.01.05l4.44.02h0Z" style="fill: url(#linear-gradient-7);"/>
      <path d="M.01,12.78l1.14-2.08-.92-2.48S.01,12.78.01,12.78Z" style="fill: url(#linear-gradient-8);"/>
      <path d="M.17,8.14l.93,2.63,4.04-.91,4.61-4.28,1.3-4.13-2.05-1.45-3.48,1.3c-1.1,1.02-3.22,3.04-3.3,3.08S.81,6.93.18,8.13h0Z" style="fill: #fff;"/>
      <path d="M3.43,3.41C5.8,1.05,8.87-.34,10.04.84c1.18,1.19-.07,4.07-2.45,6.42-2.38,2.36-5.4,3.82-6.58,2.64-1.18-1.19.03-4.15,2.41-6.5h0Z" style="fill: url(#linear-gradient-9);"/>
      <path d="M3.32,15.95l1.85-6.11,6.13,1.97c-2.22,2.08-4.68,3.84-7.98,4.15h0Z" style="fill: url(#linear-gradient-10);"/>
      <path d="M9.75,5.57l1.57,6.23c1.85-1.95,3.51-4.04,4.33-6.63l-5.9.39h0Z" style="fill: url(#linear-gradient-11);"/>
      <path d="M15.63,5.21c.63-1.9.78-4.63-2.2-5.13l-2.44,1.35,4.63,3.79h.01Z" style="fill: url(#linear-gradient-12);"/>
      <path d="M.01,12.75c.09,3.14,2.35,3.18,3.31,3.21l-2.23-5.2-1.09,1.99h.01Z" style="fill: #9e1209;"/>
      <path d="M9.75,5.58c1.42.87,4.29,2.63,4.35,2.66.09.05,1.24-1.93,1.5-3.05l-5.85.39h0Z" style="fill: url(#radial-gradient);"/>
      <path d="M5.16,9.83l2.47,4.76c1.46-.79,2.6-1.76,3.65-2.79l-6.12-1.97h0Z" style="fill: url(#radial-gradient-2);"/>
      <path d="M1.09,10.77l-.35,4.16c.66.9,1.57.98,2.52.91-.69-1.71-2.06-5.14-2.17-5.07h0Z" style="fill: url(#linear-gradient-13);"/>
      <path d="M10.98,1.43l4.9.69c-.26-1.11-1.07-1.82-2.43-2.05l-2.47,1.36h0Z" style="fill: url(#linear-gradient-14);"/>
    </g>
  </symbol>

  <symbol id="postgresql" viewBox="0 0 15.97 16.49">
    <g>
      <path d="M15.96,9.88c-.1-.29-.35-.49-.67-.54-.15-.02-.33-.01-.54.03-.36.07-.63.1-.83.11.74-1.25,1.34-2.68,1.69-4.02.56-2.17.26-3.16-.09-3.61C14.59.66,13.24.02,11.61,0c-.87,0-1.64.16-2.03.28-.37-.07-.77-.1-1.19-.11-.79-.01-1.48.16-2.07.51-.33-.11-.86-.27-1.46-.37-1.43-.23-2.58-.05-3.43.54C.4,1.59-.08,2.84.01,4.59c.03.56.34,2.25.83,3.85.28.92.58,1.69.89,2.28.44.83.91,1.33,1.44,1.5.3.1.83.17,1.4-.3.07.09.17.17.29.25.16.1.36.19.56.23.71.18,1.38.13,1.94-.12v.28c0,.14,0,.27.01.39.03.84.09,1.49.26,1.95,0,.03.02.06.03.1.08.26.23.69.58,1.03.37.35.82.46,1.23.46.21,0,.4-.03.58-.06.62-.13,1.31-.33,1.82-1.05.48-.68.71-1.71.75-3.32,0-.05.01-.09.02-.13v-.09h.15c.63.03,1.39-.1,1.86-.32.37-.17,1.56-.8,1.28-1.65"/>
      <path d="M14.89,10.05c-1.86.38-1.99-.25-1.99-.25,1.97-2.92,2.79-6.62,2.08-7.53-1.94-2.48-5.29-1.31-5.35-1.27h-.02c-.37-.07-.78-.12-1.24-.13-.84,0-1.48.22-1.97.59,0,0-5.98-2.46-5.7,3.1.06,1.18,1.7,8.95,3.65,6.6.71-.86,1.4-1.58,1.4-1.58.34.23.75.34,1.18.3l.03-.03c-.01.11,0,.21.01.33-.5.56-.36.66-1.36.87-1.02.21-.42.58-.03.68.47.12,1.57.29,2.31-.75l-.03.12c.2.16.34,1.03.31,1.81-.02.79-.04,1.33.12,1.75s.31,1.37,1.63,1.09c1.1-.24,1.68-.85,1.76-1.87.06-.73.18-.62.19-1.27l.1-.31c.12-.99.02-1.3.7-1.16h.17c.5.04,1.16-.07,1.54-.24.83-.38,1.32-1.03.5-.86h0" style="fill: #336791;"/>
      <path d="M6.75,5.08c-.17-.02-.32,0-.4.06-.04.03-.06.07-.06.1,0,.07.04.15.07.19.08.11.21.19.33.21h.05c.2,0,.39-.16.4-.28.02-.15-.19-.24-.4-.27M12.31,5.09c-.02-.11-.22-.15-.41-.12s-.38.11-.37.23c.01.09.17.24.37.24h.05c.13-.02.22-.1.27-.15.07-.07.11-.15.1-.2" style="fill: #fff;"/>
      <path d="M15.51,10c-.07-.21-.3-.28-.68-.21-1.13.23-1.53.07-1.66-.03.88-1.34,1.6-2.95,1.99-4.46.18-.71.29-1.38.29-1.92,0-.59-.09-1.03-.3-1.29-.84-1.07-2.07-1.65-3.56-1.66-1.03,0-1.89.25-2.06.32-.35-.09-.74-.14-1.16-.15-.77,0-1.44.17-1.99.55-.24-.09-.86-.3-1.61-.42-1.31-.21-2.35-.05-3.09.47C.79,1.84.38,2.96.46,4.54c.03.53.33,2.17.81,3.74.63,2.07,1.32,3.23,2.04,3.47.08.03.18.05.29.05.26,0,.59-.12.92-.52.41-.49.83-.97,1.27-1.44.28.15.59.24.91.25v.02c-.05.07-.11.13-.16.2-.22.28-.27.34-.98.48-.2.04-.74.15-.75.53,0,.41.63.58.71.6.26.06.5.1.74.1.57,0,1.07-.19,1.47-.55-.01,1.47.05,2.91.22,3.35.14.36.5,1.24,1.61,1.24.16,0,.34-.02.54-.06,1.16-.25,1.66-.76,1.86-1.89.1-.6.28-2.05.37-2.82.18.06.41.08.65.08.52,0,1.11-.11,1.48-.28.42-.19,1.18-.67,1.04-1.09h.01ZM12.74,4.77c0,.23-.04.44-.07.65-.04.23-.07.47-.08.77,0,.28.03.58.06.87.07.58.14,1.17-.14,1.76-.05-.08-.09-.17-.12-.25s-.11-.22-.21-.4c-.4-.72-1.34-2.4-.86-3.09.14-.2.51-.41,1.42-.3h0ZM11.64.9c1.34.03,2.39.53,3.14,1.49.57.73-.06,4.07-1.89,6.95-.02-.02-.04-.05-.06-.07l-.02-.03c.47-.78.38-1.55.3-2.24-.03-.28-.07-.55-.06-.8,0-.26.04-.49.08-.71.04-.27.08-.55.07-.88,0-.03.01-.08,0-.12-.03-.32-.39-1.26-1.13-2.12-.4-.47-.99-.99-1.79-1.35.34-.07.82-.14,1.34-.13h.02ZM4.16,10.99c-.37.44-.62.36-.71.33-.55-.18-1.18-1.34-1.74-3.17-.48-1.59-.77-3.18-.79-3.63-.07-1.41.27-2.4,1.02-2.93,1.22-.86,3.21-.35,4.02-.08-.01,0-.02.02-.03.03-1.32,1.33-1.29,3.6-1.28,3.74,0,.05,0,.13.01.23.02.38.06,1.09-.05,1.9-.1.75.13,1.48.63,2.01.05.05.11.11.16.15-.23.24-.72.78-1.24,1.4h0v.02ZM5.57,9.11c-.41-.43-.59-1.02-.51-1.63.12-.85.08-1.59.05-1.99v-.14c.19-.17,1.08-.65,1.72-.5.29.07.47.26.54.6.38,1.76.05,2.49-.22,3.08-.05.12-.11.24-.15.36l-.03.09c-.09.23-.17.45-.22.65-.43,0-.86-.19-1.18-.52h0ZM5.63,11.49c-.13-.03-.24-.09-.31-.13.06-.03.16-.06.33-.1.84-.17.96-.29,1.25-.65.06-.08.14-.18.24-.29h0c.15-.17.22-.14.35-.09.1.04.2.17.24.31.02.07.04.19-.03.29-.59.82-1.45.81-2.06.66h0ZM10.01,15.55c-1.02.22-1.38-.3-1.62-.9-.15-.38-.23-2.12-.18-4.04v-.07c0-.05-.02-.09-.03-.14-.08-.28-.27-.51-.51-.61-.09-.04-.26-.11-.47-.06.04-.18.12-.38.2-.6l.03-.09c.04-.1.09-.21.14-.33.28-.62.66-1.46.25-3.37-.15-.72-.67-1.06-1.45-.98-.47.05-.9.24-1.11.35-.05.02-.09.05-.13.07.06-.72.29-2.07,1.13-2.92.53-.54,1.24-.8,2.1-.79,1.7.03,2.79.9,3.41,1.63.53.63.82,1.26.93,1.6-.86-.09-1.45.08-1.74.51-.65.92.35,2.72.83,3.58.09.16.16.29.19.35.16.38.36.63.51.82.05.06.09.11.12.16-.26.08-.73.25-.69,1.12-.03.44-.28,2.48-.4,3.2-.16.95-.51,1.31-1.5,1.52h-.01ZM14.27,10.67c-.27.12-.71.22-1.14.24-.47.02-.71-.05-.76-.1-.03-.54.18-.6.39-.66.03,0,.07-.02.1-.03.02.02.04.03.06.05.38.25,1.05.28,2,.08h.01c-.13.12-.35.28-.66.42h0Z" style="fill: #fff;"/>
    </g>
  </symbol>

  <symbol id="graphql" viewBox="0 0 16.01 17.97">
    <path d="M9.54,2.06l3.7,2.13c.1-.11.23-.21.36-.29.77-.44,1.74-.18,2.19.59.44.77.18,1.74-.59,2.19-.14.08-.28.13-.43.17v4.27c.14.04.29.09.42.17.77.45,1.03,1.42.59,2.19-.44.77-1.42,1.03-2.19.59-.15-.09-.29-.2-.4-.32l-3.67,2.12c.05.16.08.33.08.5,0,.88-.72,1.6-1.6,1.6s-1.6-.72-1.6-1.6c0-.16.02-.31.06-.45l-3.7-2.13c-.1.11-.22.2-.36.28-.77.44-1.75.18-2.19-.59s-.18-1.74.59-2.19c.14-.08.28-.13.42-.17v-4.27c-.15-.04-.29-.09-.43-.17C.03,6.24-.23,5.26.21,4.49c.44-.77,1.42-1.03,2.19-.59.14.08.26.18.36.29l3.7-2.13c-.04-.14-.07-.3-.07-.46,0-.89.72-1.6,1.6-1.6s1.6.72,1.6,1.6c0,.16-.02.31-.07.46h.02ZM9.15,2.72l3.71,2.14c-.11.4-.07.85.15,1.24.23.39.59.65,1,.75v4.28s-.04.01-.06.02L9.11,2.76s.03-.03.04-.04ZM6.89,2.76L2.05,11.14s-.04-.01-.06-.02v-4.28c.41-.1.78-.36,1-.75.23-.39.27-.84.15-1.24l3.7-2.14s.03.03.05.05ZM8.45,3.14l4.84,8.38c-.11.1-.2.22-.28.36-.08.14-.13.28-.17.42H3.16c-.04-.14-.09-.29-.17-.42-.08-.14-.17-.26-.28-.36L7.55,3.14c.14.04.29.06.45.06s.31-.02.45-.06ZM9.18,15.3l3.68-2.13s-.02-.07-.03-.11H3.16s0,.04-.02.06l3.7,2.14c.29-.3.7-.49,1.15-.49s.89.2,1.18.52h.01Z" style="fill: #e535ab; fill-rule: evenodd;" />
  </symbol>

  <symbol id="react" viewBox="0 0 16 14.38">
    <path d="M0,7.17c0,1.21,1.18,2.34,3.04,2.97-.37,1.87-.07,3.38.95,3.96,1.05.6,2.61.19,4.09-1.11,1.44,1.24,2.9,1.73,3.92,1.14,1.05-.61,1.36-2.21.98-4.14,1.94-.64,3.02-1.6,3.02-2.83s-1.18-2.2-3.02-2.83c.41-2.01.06-3.48-1-4.09-1.02-.59-2.5-.08-3.96,1.2C6.5.09,5.04-.32,3.98.29c-1.02.59-1.31,2.13-.94,4.03-1.8.63-3.04,1.67-3.04,2.85Z" style="fill:#fff;"/>
    <path d="M12.59,4.96c-.15-.05-.3-.1-.46-.14.03-.11.05-.21.07-.31.35-1.68.12-3.03-.65-3.48-.74-.43-1.95.02-3.18,1.08-.12.1-.24.21-.35.32-.08-.08-.16-.15-.24-.22-1.28-1.14-2.57-1.62-3.34-1.17-.74.43-.96,1.7-.65,3.29.03.15.07.31.11.47-.18.05-.36.11-.53.17-1.5.52-2.47,1.35-2.47,2.2s1.03,1.76,2.6,2.3c.12.04.25.08.38.12-.04.17-.08.34-.11.51-.3,1.57-.07,2.81.67,3.23.76.44,2.04-.01,3.29-1.1l.3-.27c.13.12.26.24.38.35,1.21,1.04,2.4,1.46,3.14,1.03.76-.44,1.01-1.78.69-3.4-.02-.12-.05-.25-.09-.38.09-.03.18-.05.26-.08,1.63-.54,2.69-1.41,2.69-2.3s-.99-1.68-2.53-2.21h.02Z" style="fill:#53c1de;"/>
    <path d="M12.24,8.9c-.08.03-.16.05-.24.07-.18-.57-.42-1.17-.72-1.8.28-.61.52-1.21.69-1.77.15.04.29.09.42.13,1.31.45,2.12,1.12,2.12,1.64,0,.55-.87,1.26-2.27,1.73h0ZM11.66,10.06c.14.72.16,1.37.07,1.88-.08.46-.25.76-.47.88-.45.26-1.41-.08-2.44-.97-.12-.1-.24-.21-.36-.33.4-.44.8-.95,1.19-1.51.69-.06,1.34-.16,1.92-.3.03.12.05.23.08.34h.01ZM5.76,12.77c-.44.15-.79.16-1,.04-.45-.26-.63-1.26-.38-2.59.03-.15.06-.31.1-.47.58.13,1.23.22,1.91.28.39.55.8,1.06,1.22,1.51-.09.09-.18.17-.27.25-.55.48-1.1.82-1.59,1h0v-.02ZM3.71,8.9c-.69-.24-1.27-.54-1.66-.88-.35-.3-.53-.6-.53-.84,0-.52.77-1.18,2.06-1.63.16-.05.32-.11.49-.15.18.58.41,1.18.69,1.79-.29.62-.52,1.23-.7,1.82-.12-.03-.24-.07-.35-.11h0ZM4.39,4.22c-.27-1.36-.09-2.39.36-2.65.48-.28,1.53.12,2.63,1.1.07.06.14.13.21.2-.41.44-.82.95-1.21,1.5-.67.06-1.31.16-1.9.29-.04-.15-.07-.29-.1-.44h0ZM10.52,5.73c-.14-.24-.28-.48-.43-.71.45.06.89.13,1.3.23-.12.39-.28.8-.45,1.22-.13-.24-.27-.49-.41-.74h-.01ZM8.02,3.3c.28.3.56.64.84,1.01-.28-.01-.56-.02-.84-.02s-.56,0-.84.02c.28-.36.56-.7.84-1.01h0ZM5.51,5.74c-.14.24-.27.49-.4.73-.18-.42-.33-.83-.45-1.23.41-.09.84-.16,1.29-.22-.15.23-.29.47-.44.72h0ZM5.96,9.37c-.47-.05-.9-.12-1.31-.21.13-.41.28-.83.46-1.25.13.25.26.49.4.74h0c.14.25.29.49.45.73h0ZM8.04,11.09c-.29-.31-.57-.65-.85-1.02.27.01.55.02.83.02s.58,0,.86-.02c-.28.38-.56.72-.83,1.03h-.01ZM10.94,7.88c.19.43.35.85.48,1.25-.41.09-.86.17-1.33.23.15-.23.29-.47.44-.72.14-.25.28-.5.41-.75h0ZM10,8.33c-.22.39-.45.75-.68,1.1-.42.03-.86.05-1.3.05s-.87-.01-1.29-.04c-.24-.35-.47-.72-.69-1.1h0c-.22-.38-.42-.76-.61-1.14.18-.38.39-.77.6-1.15h0c.22-.38.45-.75.69-1.1.42-.03.86-.05,1.29-.05h0c.44,0,.87.02,1.3.05.23.35.46.71.68,1.09s.43.77.61,1.14c-.18.38-.39.77-.61,1.15h.01ZM11.25,1.55c.48.27.66,1.38.36,2.83-.02.09-.04.19-.06.28-.59-.14-1.23-.24-1.9-.3-.39-.56-.8-1.06-1.2-1.5.11-.11.22-.21.33-.3,1.05-.91,2.03-1.27,2.48-1.02h-.01Z" style="fill:#fff;"/>
    <path d="M8.02,5.9c.7,0,1.27.57,1.27,1.27s-.57,1.27-1.27,1.27-1.27-.57-1.27-1.27.57-1.27,1.27-1.27" style="fill:#53c1de;"/>
  </symbol>

  <symbol id="javascript">
    <path d="M0,0h16v16H0V0Z" style="fill:#f7df1e;"/>
    <path d="M4.21,13.37l1.22-.74c.24.42.45.77.97.77s.81-.19.81-.95v-5.11h1.5v5.13c0,1.56-.91,2.27-2.24,2.27-1.2,0-1.9-.62-2.26-1.37" style="fill:#000000;"/>
    <path d="M9.52,13.21l1.22-.71c.32.53.74.91,1.48.91.62,0,1.02-.31,1.02-.74,0-.52-.41-.7-1.1-1l-.38-.16c-1.08-.46-1.8-1.04-1.8-2.27,0-1.13.86-1.99,2.2-1.99.96,0,1.64.33,2.14,1.2l-1.17.75c-.26-.46-.54-.64-.97-.64s-.72.28-.72.64c0,.45.28.63.92.91l.38.16c1.28.55,2,1.11,2,2.36,0,1.35-1.06,2.09-2.49,2.09s-2.3-.67-2.74-1.54" style="fill:#000000;"/>
  </symbol>

  <symbol id="html5" viewBox="0 0 16 18.16">
    <polygon points="1.46 16.34 0 0 16 0 14.54 16.34 8 18.16 1.46 16.34" style="fill:#e34e26;"/>
    <polygon points="8 1.34 8 16.77 13.29 15.3 14.54 1.34 8 1.34" style="fill:#ef662a;"/>
    <polygon points="2.98 3.34 3.52 9.4 10.47 9.4 10.23 12 8 12.6 5.77 12 5.62 10.33 3.6 10.33 3.89 13.55 8 14.69 12.11 13.55 12.66 7.4 5.35 7.4 5.17 5.34 12.83 5.34 12.84 5.34 13.02 3.34 2.98 3.34" style="fill:#fff;"/>
    <polygon points="8 3.34 2.98 3.34 3.52 9.4 8 9.4 8 7.4 5.35 7.4 5.17 5.34 8 5.34 8 3.34" style="fill:#ebebeb;"/>
    <polygon points="8 12.6 8 12.6 5.77 12 5.62 10.33 3.6 10.33 3.89 13.55 8 14.69 8 14.69 8 12.6" style="fill:#ebebeb;"/>
  </symbol>

  <symbol id="css3" viewBox="0 0 16 18.15">
    <path d="M7.99,18.15l-6.53-1.81L0,0h16l-1.46,16.33-6.55,1.82h0Z" style="fill:#264de4;"/>
    <path d="M13.29,15.29l1.25-13.95h-6.54v15.42l5.29-1.47h0Z" style="fill:#2965f1;"/>
    <path d="M3.34,7.39l.18,2h4.48v-2s-4.66,0-4.66,0ZM2.98,3.34l.18,2h4.84v-2s-5.02,0-5.02,0ZM8,12.59h0l-2.23-.6-.14-1.6h-2.01l.28,3.15,4.1,1.14h0s0-2.09,0-2.09Z" style="fill:#ebebeb;"/>
    <path d="M12.65,7.39l.36-4.05h-5.02v2h2.82l-.18,2.05h-2.64v2h2.47l-.23,2.6-2.23.6v2.08l4.11-1.14.03-.34.47-5.27.05-.54h-.01Z" style="fill:#fff;"/>
  </symbol>

  <symbol id="nodejs" viewBox="0 0 15.99 18.04">
    <path d="M7.99,18.03c-.25,0-.48-.07-.7-.18l-2.2-1.31c-.33-.18-.17-.25-.07-.28.45-.15.53-.18.99-.45.05-.03.12-.02.17.02l1.69,1.01c.07.03.15.03.2,0l6.61-3.83c.07-.03.1-.1.1-.18v-7.64c0-.08-.03-.15-.1-.18l-6.61-3.81c-.07-.03-.15-.03-.2,0L1.27,5.01c-.07.03-.1.12-.1.18v7.64c0,.07.03.15.1.18l1.81,1.04c.98.5,1.59-.08,1.59-.66v-7.54c0-.1.08-.2.2-.2h.84c.1,0,.2.08.2.2v7.54c0,1.31-.71,2.07-1.95,2.07-.38,0-.68,0-1.52-.41l-1.74-.99c-.43-.25-.7-.71-.7-1.21v-7.64c0-.5.27-.96.7-1.21L7.29.17c.41-.23.98-.23,1.39,0l6.61,3.83c.43.25.7.71.7,1.21v7.64c0,.5-.27.96-.7,1.21l-6.61,3.83c-.22.1-.46.15-.7.15h0ZM10.03,12.78c-2.9,0-3.49-1.33-3.49-2.45,0-.1.08-.2.2-.2h.86c.1,0,.18.07.18.17.13.88.51,1.31,2.27,1.31,1.39,0,1.99-.31,1.99-1.06,0-.43-.17-.75-2.34-.96-1.81-.18-2.93-.58-2.93-2.02,0-1.34,1.13-2.14,3.01-2.14,2.12,0,3.16.73,3.3,2.32,0,.05-.02.1-.05.15-.03.03-.08.07-.13.07h-.86c-.08,0-.17-.07-.18-.15-.2-.91-.71-1.21-2.07-1.21-1.52,0-1.71.53-1.71.93,0,.48.22.63,2.27.89,2.04.27,3,.65,3,2.07-.02,1.46-1.21,2.29-3.31,2.29h0Z" style="fill:#539e43;"/>
  </symbol>

  <symbol id="openai" viewBox="0 0 16 16.23">
    <path d="M14.95,6.64c.37-1.1.24-2.31-.35-3.32-.88-1.54-2.66-2.33-4.4-1.96C9.22.27,7.74-.21,6.3.09c-1.43.3-2.59,1.35-3.05,2.74-1.14.23-2.13.95-2.7,1.96-.89,1.54-.69,3.48.5,4.8-.37,1.1-.24,2.31.35,3.32.89,1.54,2.67,2.33,4.4,1.96.77.87,1.88,1.37,3.05,1.36,1.78,0,3.36-1.15,3.9-2.84,1.14-.23,2.13-.95,2.7-1.96.88-1.53.68-3.46-.51-4.78h.01ZM8.85,15.16c-.71,0-1.4-.25-1.94-.7l.1-.05,3.23-1.86c.16-.1.26-.27.27-.46v-4.55l1.37.79s.02.02.03.04v3.77c0,1.68-1.36,3.03-3.04,3.04l-.02-.02ZM2.32,12.37c-.36-.62-.48-1.34-.36-2.04l.1.06,3.23,1.86c.16.1.36.1.53,0l3.95-2.28v1.58s0,.03-.02.04l-3.27,1.89c-1.45.84-3.31.34-4.15-1.11h0ZM1.47,5.34c.36-.62.93-1.09,1.6-1.33v3.84c0,.19.1.36.26.46l3.93,2.27-1.37.79h-.05l-3.26-1.88c-1.45-.84-1.95-2.7-1.11-4.15v.02-.02ZM12.69,7.94l-3.94-2.29,1.36-.79h.05l3.26,1.89c1.02.59,1.61,1.71,1.51,2.88-.1,1.17-.86,2.18-1.97,2.59v-3.84c0-.19-.11-.36-.27-.45h0ZM14.05,5.9l-.1-.06-3.23-1.88c-.16-.1-.37-.1-.53,0l-3.95,2.28v-1.58s0-.03.02-.04l3.26-1.88c1.02-.59,2.29-.53,3.26.14s1.46,1.85,1.26,3.01h.01ZM5.5,8.69l-1.37-.79s-.02-.02-.03-.04v-3.76c0-1.18.68-2.25,1.75-2.75s2.33-.34,3.23.42l-.1.05-3.23,1.86c-.16.1-.26.27-.27.46v4.54h.02ZM6.25,7.09l1.76-1.01,1.76,1.01v2.03l-1.76,1.01-1.76-1.01v-2.03Z"/>
  </symbol>
</svg>
