<?xml version="1.0" encoding="UTF-8"?><svg id="b" xmlns="http://www.w3.org/2000/svg" viewBox="0 0 834.04 181.75"><g id="c"><path d="M135.2,34.83c19.85,20.53,22.59,24.26,24.84,33.72,4.91,20.7.69,29.1-30.94,61.55-23.77,24.38-24.72,25.1-33.19,25.1-4.8,0-8.72-.7-8.72-1.56s15.51-17.22,34.47-36.35c21.91-22.12,34.47-36.3,34.47-38.94s-10.87-15.11-29.29-33.7c-16.11-16.25-28.83-30.31-28.27-31.23.56-.92,4.02-1.67,7.67-1.67,5.8,0,9.5,2.95,28.96,23.08ZM83.03,17.03c3.85,1.69,18.68,14.75,32.95,29.02,24.05,24.05,25.95,26.52,25.95,33.62,0,4.21-.74,8.13-1.65,8.7-.91.57-17.55-15.05-36.98-34.72-19.43-19.66-36.72-35.75-38.42-35.75s-16.3,13.37-32.44,29.72C16.3,63.96,2.4,77.33,1.55,77.33s-1.55-4.01-1.55-8.91c0-8.58.73-9.62,19.77-28.25,10.87-10.63,23.1-20.92,27.17-22.85,9.08-4.32,26.59-4.46,36.09-.29ZM75.02,35.85c0,.86-15.97,17.68-35.48,37.38C20.02,92.93,4.06,109.92,4.06,110.98s13.71,15.88,30.46,32.94c16.75,17.06,29.83,31.65,29.06,32.43-.77.78-4.55,1.41-8.41,1.41-6.09,0-9.43-2.38-25.19-17.93C9.5,139.62,2.6,129.27.81,116.08c-2.49-18.38,1.12-24.9,30.21-54.63,25.89-26.46,26.79-27.15,35.28-27.15,4.79,0,8.71.7,8.71,1.56ZM58.91,135.85c19.43,19.66,36.64,35.75,38.24,35.75s16.25-13.37,32.55-29.72c16.3-16.34,30.28-29.72,31.07-29.72s1.43,3.48,1.43,7.72c0,7.07-1.76,9.49-20.78,28.61-22.18,22.29-30.32,27.2-45.11,27.2s-22.77-4.73-50.18-32.33c-23.83-23.99-25.85-26.61-25.85-33.62,0-4.18.74-8.06,1.65-8.63.91-.57,17.55,15.05,36.98,34.72Z" style="fill-rule:evenodd;"/><path d="M185.5,178.75v-18.5h23.5V30.25h-23.5V11.75h70.5v18.5h-23.5v130h23.5v18.5h-70.5ZM282.52,178.75V54.75h15.5l5.5,18.75c3.5-5.83,8.42-10.75,14.75-14.75,6.33-4,14.75-6,25.25-6,15,0,25.58,4.42,31.75,13.25,6.17,8.67,9.25,20.08,9.25,34.25v78.5h-21v-72.25c0-6.33-.58-12.17-1.75-17.5-1.17-5.5-3.75-9.92-7.75-13.25-3.83-3.33-9.75-5-17.75-5-10.17,0-18.17,3.5-24,10.5-5.83,6.83-8.75,16.92-8.75,30.25v67.25h-21ZM418.74,178.75v-107.25h-21v-16.75h21v-18.5c0-8.5.83-15.25,2.5-20.25,1.67-5,4.92-8.5,9.75-10.5,4.83-2.17,11.83-3.25,21-3.25h13.5v17.75h-13c-5.33,0-8.83,1.08-10.5,3.25-1.5,2.17-2.25,6.42-2.25,12.75v18.75h25.75v16.75h-25.75v107.25h-21ZM503.13,31.25c-4.17,0-7.83-1.5-11-4.5-3-3.17-4.5-6.92-4.5-11.25s1.5-8,4.5-11c3.17-3,6.83-4.5,11-4.5s8,1.5,11,4.5c3.17,3,4.75,6.67,4.75,11s-1.58,8.08-4.75,11.25c-3,3-6.67,4.5-11,4.5ZM492.63,178.75v-107.25h-17.25v-16.75h38.25v124h-21ZM596.46,181.75c-13,0-24-2.83-33-8.5-9-5.83-15.92-13.58-20.75-23.25-4.67-9.83-7-20.83-7-33,0-13.17,2.67-24.5,8-34,5.33-9.67,12.5-17.08,21.5-22.25,9.17-5.33,19.42-8,30.75-8,9.83,0,18.5,2,26,6,7.5,3.83,13.67,9.08,18.5,15.75,5,6.5,8.58,13.92,10.75,22.25,2.33,8.33,3.17,16.92,2.5,25.75h-95.5c.33,10.33,2.58,18.5,6.75,24.5,4.33,6,9.42,10.25,15.25,12.75,5.83,2.33,11.25,3.5,16.25,3.5,7,0,12.83-1.08,17.5-3.25,4.83-2.33,8.67-5.33,11.5-9l20.25,6c-4.5,7.17-10.92,13.08-19.25,17.75-8.33,4.67-18.33,7-30,7ZM558.46,105.75h73c0-5.83-1.5-11.42-4.5-16.75-2.83-5.33-6.92-9.67-12.25-13-5.17-3.5-11.42-5.25-18.75-5.25-6.17,0-12,1.17-17.5,3.5s-10.08,6.08-13.75,11.25c-3.5,5.17-5.58,11.92-6.25,20.25ZM700.22,178.75c-7.83,0-13.92-.75-18.25-2.25-4.17-1.67-7.08-4.75-8.75-9.25-1.5-4.5-2.25-11-2.25-19.5V12h21v132.25c0,6.33.67,10.58,2,12.75,1.33,2.17,4.92,3.25,10.75,3.25h4.75v18.5h-9.25ZM768.54,181.75c-9.33,0-18.08-2.5-26.25-7.5-8.17-5.17-14.75-12.5-19.75-22-4.83-9.67-7.25-21.33-7.25-35s2.42-25.25,7.25-34.75c5-9.67,11.58-17,19.75-22,8.17-5.17,16.92-7.75,26.25-7.75,9.83,0,18.08,2,24.75,6,6.67,3.83,11.83,9,15.5,15.5V11.75h21v120.25c0,4.17.17,10.33.5,18.5.33,8,1.58,17.42,3.75,28.25h-19.75l-5.5-18.75c-3.67,6.67-8.83,12-15.5,16-6.67,3.83-14.92,5.75-24.75,5.75ZM774.04,163.75c10.67,0,19.17-4.08,25.5-12.25,6.5-8.17,9.75-19.58,9.75-34.25s-3.25-26.25-9.75-34.25c-6.33-8.17-14.83-12.25-25.5-12.25s-19.25,4.08-25.75,12.25c-6.33,8-9.5,19.42-9.5,34.25s3.17,26.08,9.5,34.25c6.5,8.17,15.08,12.25,25.75,12.25Z"/></g></svg>