<?xml version="1.0" encoding="UTF-8"?><svg id="b" xmlns="http://www.w3.org/2000/svg" xmlns:xlink="http://www.w3.org/1999/xlink" viewBox="0 0 652.4 193.2"><defs><linearGradient id="d" x1="26.99" y1="43.02" x2="26.99" y2="152.77" gradientUnits="userSpaceOnUse"><stop offset="0" stop-color="#dc1416"/><stop offset="0" stop-color="#da1416"/><stop offset=".09" stop-color="#bd1416"/><stop offset=".19" stop-color="#a61416"/><stop offset=".3" stop-color="#941416"/><stop offset=".43" stop-color="#881416"/><stop offset=".6" stop-color="#811416"/><stop offset="1" stop-color="#7f1416"/></linearGradient><linearGradient id="e" x1="449.81" y1="0" x2="449.81" y2="152.77" gradientUnits="userSpaceOnUse"><stop offset="0" stop-color="#dd1416"/><stop offset="0" stop-color="#da1416"/><stop offset=".09" stop-color="#bd1416"/><stop offset=".19" stop-color="#a61416"/><stop offset=".3" stop-color="#941416"/><stop offset=".43" stop-color="#881416"/><stop offset=".6" stop-color="#811416"/><stop offset="1" stop-color="#7f1416"/></linearGradient></defs><g id="c"><path d="M152.57,72.61h-24.23v65.22h-23.33v-65.22h-24.36v-20.88h71.93v20.88Z"/><path d="M196.01,50.31c23.07,0,40.73,13.28,40.73,44.73,0,28.75-14.7,44.21-40.73,44.21s-40.6-15.85-40.6-44.21c0-31.45,17.66-44.73,40.6-44.73ZM196.01,118.75c12.25,0,17.4-7.48,17.4-19.21v-9.67c0-11.73-5.16-19.08-17.4-19.08s-17.4,7.35-17.4,19.08v9.67c0,11.86,5.28,19.21,17.4,19.21Z"/><path d="M320.66,136.93l-.26.9h-24.1l-10.83-25.52h-14.82v25.52h-22.82V51.72h40.99c20.24,0,30.55,9.41,30.55,28.87,0,13.02-4,22.17-11.47,27.2l12.76,29.13ZM270.65,95.55h16.11c7.22,0,9.8-4.64,9.8-10.83v-4.12c0-7.22-3.35-9.41-9.8-9.41h-16.11v24.36Z"/><path d="M367.2,140.54c-27.33-4-38.93-17.01-38.93-45.5,0-31.45,17.66-44.73,40.6-44.73s40.73,12.89,40.73,40.22c0,22.17-8.51,32.48-22.3,33.9v.52l20.62,2.58v19.34l-40.73-6.32ZM386.28,97.87v-7.99c0-11.73-5.16-19.08-17.4-19.08s-17.4,7.35-17.4,19.08v9.67c0,11.86,5.29,19.21,17.4,19.21s17.4-8.12,17.4-20.88Z"/><path d="M419.79,51.72h23.33v53.37c0,9.8,4.51,13.79,12.63,13.79h2.97c8.12,0,12.63-4,12.63-13.79v-53.37h23.33v54.14c0,22.82-14.82,33.39-37.38,33.39s-37.51-10.57-37.51-33.39v-54.14Z"/><path d="M569.71,118.63v19.21h-62.26V51.72h60.97v19.21h-38.15v15.08h34.93v16.37h-34.93v16.24h39.44Z"/><path d="M.86,100.89l26.78,49.45c.81,1.5,2.37,2.42,4.07,2.42h17.64c1.63,0,3.11-.83,3.96-2.23.85-1.4.9-3.1.14-4.54l-25.42-48.5,25.35-47.67c.77-1.45.73-3.15-.12-4.56-.84-1.41-2.33-2.24-3.97-2.24h-17.6c-1.69,0-3.24.92-4.06,2.4L.88,94.11c-1.16,2.12-1.17,4.65-.02,6.78Z" style="fill:url(#d);"/><path d="M651.51,93.23l-16.82-30.61c-2.9-6.62-6.22-12.68-9.99-18.18l-.35-.63c-.26-.47-.59-.87-.97-1.21-20.31-28.26-52.69-41.49-98.37-42.6h0S247.22,17.59,247.22,17.59l263.8,1.93c43.43-.18,71.44,8.9,90,34.03l14.08,26.49h0s8.85,16.64,8.85,16.64l-25.8,49.23c-.77,1.47-.72,3.19.14,4.61.86,1.42,2.36,2.27,4.02,2.27h17.9c1.73,0,3.31-.94,4.13-2.46l27.18-50.2c1.17-2.16,1.16-4.73-.02-6.88Z" style="fill:url(#e);"/><path d="M461.35,192.1l-.17.23h-3.25l-2.09-5.71h-9.29l-2.09,5.71h-3.25l-.17-.23,8.36-21.93h3.62l8.33,21.93ZM454.85,183.87l-.46-1.26c-1.06-2.75-2.06-5.81-3.09-9.12h-.17c-1.03,3.32-2.06,6.37-3.12,9.12l-.46,1.26h7.3Z" style="stroke:#000; stroke-miterlimit:10;"/><path d="M487.44,167.58v24.75h-2.26l-.9-2.49h-.13c-.56,1.99-2.46,2.85-4.94,2.85-3.88,0-6.64-2.92-6.64-9.03,0-6.47,3.25-9.22,7.4-9.22,2.06,0,3.35.46,4.11.8h.1v-7.66h3.25ZM484.19,188.52v-10.78c-.73-.1-2.06-.23-4.08-.23-3.35,0-4.28,1.09-4.28,5.14v2.36c0,3.62.93,4.65,3.95,4.65,2.26,0,3.55-.63,4.41-1.13Z" style="stroke:#000; stroke-miterlimit:10;"/><path d="M523.94,180.16v12.18h-3.25v-13.01c0-1.39-.8-1.82-2.75-1.82-1.29,0-2.75.46-3.38.96v13.87h-3.22v-13.01c0-1.39-.83-1.82-2.79-1.82-1.29,0-2.75.46-3.38.96v13.87h-3.22v-17.52h2.22l.96,2.52h.2c.76-1.76,2.06-2.89,4.55-2.89s3.82,1.09,4.41,3.05h.17c.9-2.09,2.32-3.05,4.65-3.05,3.09,0,4.84,1.82,4.84,5.71Z" style="stroke:#000; stroke-miterlimit:10;"/><path d="M539.81,167.71c1.56,0,1.79.36,1.79,1.96s-.23,1.92-1.79,1.92-1.79-.36-1.79-1.92.2-1.96,1.79-1.96ZM541.4,174.81v17.52h-3.22v-17.52h3.22Z" style="stroke:#000; stroke-miterlimit:10;"/><path d="M569.71,180.65v11.68h-3.25v-12.64c0-1.36-.43-2.19-3.32-2.19-1.43,0-3.12.4-3.98.96v13.87h-3.22v-17.52h2.22l.96,2.52h.2c.83-1.79,2.22-2.89,4.84-2.89,3.22,0,5.54,1.73,5.54,6.21Z" style="stroke:#000; stroke-miterlimit:10;"/></g></svg>